<svg width="128" height="128" viewBox="0 0 128 128" fill="none" xmlns="http://www.w3.org/2000/svg">
<g clip-path="url(#clip0_1_2)">
<rect width="128" height="128" fill="#A7D8C9"/>
<path d="M21.715 82.952C21.715 86.0667 21.331 88.5627 20.563 90.44C19.795 92.3173 18.6643 93.832 17.171 94.984C15.7203 96.1787 13.6723 97.3733 11.027 98.568L9.299 94.28C10.963 93.512 12.243 92.744 13.139 91.976C14.035 91.2507 14.6963 90.2053 15.123 88.84C15.5923 87.5173 15.827 85.6827 15.827 83.336V51.272H21.715V82.952ZM18.771 35.08C20.0083 35.08 21.011 35.464 21.779 36.232C22.547 37 22.931 37.96 22.931 39.112C22.931 40.264 22.547 41.224 21.779 41.992C21.011 42.7173 20.0083 43.08 18.771 43.08C17.5763 43.08 16.595 42.7173 15.827 41.992C15.059 41.224 14.675 40.264 14.675 39.112C14.675 37.96 15.059 37 15.827 36.232C16.595 35.464 17.5763 35.08 18.771 35.08ZM43.0445 50.504C45.3485 50.504 47.4178 50.824 49.2525 51.464C51.0872 52.104 52.8365 53.064 54.5005 54.344L52.0045 58.056C50.4685 57.0747 48.9965 56.3493 47.5885 55.88C46.2232 55.4107 44.7725 55.176 43.2365 55.176C41.3165 55.176 39.8018 55.5813 38.6925 56.392C37.5832 57.16 37.0285 58.2267 37.0285 59.592C37.0285 60.9573 37.5405 62.024 38.5645 62.792C39.6312 63.56 41.5298 64.3067 44.2605 65.032C48.0152 65.9707 50.8098 67.2507 52.6445 68.872C54.5218 70.4933 55.4605 72.712 55.4605 75.528C55.4605 78.856 54.1592 81.3947 51.5565 83.144C48.9965 84.8933 45.8605 85.768 42.1485 85.768C37.0285 85.768 32.7832 84.296 29.4125 81.352L32.5485 77.768C35.4072 79.944 38.5645 81.032 42.0205 81.032C44.2392 81.032 45.9885 80.584 47.2685 79.688C48.5912 78.7493 49.2525 77.4907 49.2525 75.912C49.2525 74.76 49.0178 73.8427 48.5485 73.16C48.0792 72.4347 47.2685 71.816 46.1165 71.304C44.9645 70.7493 43.2792 70.1733 41.0605 69.576C37.4765 68.6373 34.8738 67.3787 33.2525 65.8C31.6738 64.2213 30.8845 62.216 30.8845 59.784C30.8845 58.0347 31.3965 56.456 32.4205 55.048C33.4872 53.5973 34.9378 52.488 36.7725 51.72C38.6498 50.9093 40.7405 50.504 43.0445 50.504ZM95.8315 70.28C95.8315 73.3093 95.1702 76.0187 93.8475 78.408C92.5675 80.7973 90.6262 82.6747 88.0235 84.04C85.4208 85.4053 82.2422 86.088 78.4875 86.088C72.8555 86.088 68.5675 84.6587 65.6235 81.8C62.6795 78.9413 61.2075 75.1013 61.2075 70.28V40.648H71.7035V69.832C71.7035 72.6907 72.2368 74.824 73.3035 76.232C74.4128 77.5973 76.1408 78.28 78.4875 78.28C80.8768 78.28 82.6048 77.5973 83.6715 76.232C84.7808 74.824 85.3355 72.6907 85.3355 69.832V40.648H95.8315V70.28ZM114.031 40.648V85H103.535V40.648H114.031Z" fill="#222222"/>
</g>
<defs>
<clipPath id="clip0_1_2">
<rect width="128" height="128" fill="white"/>
</clipPath>
</defs>
</svg>
